<svg id="visual" viewBox="0 0 900 600" width="900" height="600" xmlns="http://www.w3.org/2000/svg" xmlns:xlink="http://www.w3.org/1999/xlink" version="1.1"><path d="M0 133L21.5 139.8C43 146.7 86 160.3 128.8 155C171.7 149.7 214.3 125.3 257.2 123C300 120.7 343 140.3 385.8 140.8C428.7 141.3 471.3 122.7 514.2 112.5C557 102.3 600 100.7 642.8 118.3C685.7 136 728.3 173 771.2 188.5C814 204 857 198 878.5 195L900 192L900 0L878.5 0C857 0 814 0 771.2 0C728.3 0 685.7 0 642.8 0C600 0 557 0 514.2 0C471.3 0 428.7 0 385.8 0C343 0 300 0 257.2 0C214.3 0 171.7 0 128.8 0C86 0 43 0 21.5 0L0 0Z" fill="#be2a2a" stroke-linecap="round" stroke-linejoin="miter"></path></svg>