<svg width="522.275px" height="173.6px" xmlns="http://www.w3.org/2000/svg" viewBox="-11.137499999999989 -11.799999999999997 522.275 173.6" style="background: none;" preserveAspectRatio="xMidYMid"><defs><filter id="editing-extrude-glow"><feFlood flood-color="none" result="flood-1"></feFlood><feMorphology operator="erode" radius="1" in="SourceAlpha" result="erode"></feMorphology><feComposite operator="in" in="flood-1" in2="erode" result="comp1"></feComposite><feConvolveMatrix order="0,0" divisor="1" in="comp1" result="convolve" kernelMatrix=""></feConvolveMatrix><feOffset dx="0" dy="0" in="convolve" result="extrude"></feOffset><feComposite operator="in" in="flood-1" in2="extrude" result="comp-extrude"></feComposite><feFlood flood-color="none" result="flood-2"></feFlood><feComposite operator="in" in="flood-2" in2="SourceAlpha" result="comp2"></feComposite><feMorphology operator="dilate" radius="1" in="comp2" result="dilate"></feMorphology><feOffset dx="0" dy="0" in="dilate" result="offset"></feOffset><feGaussianBlur in="offset" stdDeviation="5.8" result="blur"></feGaussianBlur><feComponentTransfer in="blur" result="shadow"><feFuncA type="linear" slope="0.8" intercept="-0.2"></feFuncA></feComponentTransfer><feMerge><feMergeNode in="shadow"></feMergeNode><feMergeNode in="comp-extrude"></feMergeNode><feMergeNode in="SourceGraphic"></feMergeNode></feMerge></filter></defs><g filter="url(#editing-extrude-glow)"><g transform="translate(63.825016021728516, 101.81499862670898)"><path d="M15.04-15.81L15.04-8L15.04-8Q15.94-7.74 17.34-7.65L17.34-7.65L17.34-7.65Q18.75-7.55 20.03-7.55L20.03-7.55L20.03-7.55Q22.59-7.55 24.29-8.61L24.29-8.61L24.29-8.61Q25.98-9.66 25.98-11.90L25.98-11.90L25.98-11.90Q25.98-14.02 24.58-14.91L24.58-14.91L24.58-14.91Q23.17-15.81 20.29-15.81L20.29-15.81L15.04-15.81ZM15.04-31.17L15.04-23.62L19.71-23.62L19.71-23.62Q22.46-23.62 23.71-24.64L23.71-24.64L23.71-24.64Q24.96-25.66 24.96-27.65L24.96-27.65L24.96-27.65Q24.96-29.38 23.52-30.40L23.52-30.40L23.52-30.40Q22.08-31.42 19.20-31.42L19.20-31.42L19.20-31.42Q18.24-31.42 16.99-31.36L16.99-31.36L16.99-31.36Q15.74-31.30 15.04-31.17L15.04-31.17ZM19.20 1.02L19.20 1.02L19.20 1.02Q18.11 1.02 16.64 0.96L16.64 0.96L16.64 0.96Q15.17 0.90 13.60 0.70L13.60 0.70L13.60 0.70Q12.03 0.51 10.50 0.22L10.50 0.22L10.50 0.22Q8.96-0.06 7.68-0.58L7.68-0.58L7.68-0.58Q4.16-1.92 4.16-5.25L4.16-5.25L4.16-35.14L4.16-35.14Q4.16-36.48 4.90-37.22L4.90-37.22L4.90-37.22Q5.63-37.95 6.91-38.40L6.91-38.40L6.91-38.40Q9.09-39.17 12.35-39.52L12.35-39.52L12.35-39.52Q15.62-39.87 19.07-39.87L19.07-39.87L19.07-39.87Q27.26-39.87 31.68-37.12L31.68-37.12L31.68-37.12Q36.10-34.37 36.10-28.61L36.10-28.61L36.10-28.61Q36.10-25.73 34.43-23.65L34.43-23.65L34.43-23.65Q32.77-21.57 29.95-20.61L29.95-20.61L29.95-20.61Q33.15-19.71 35.30-17.34L35.30-17.34L35.30-17.34Q37.44-14.98 37.44-11.39L37.44-11.39L37.44-11.39Q37.44-5.06 32.74-2.02L32.74-2.02L32.74-2.02Q28.03 1.02 19.20 1.02ZM42.62-12.35L42.62-30.66L42.62-30.66Q43.26-30.85 44.64-31.04L44.64-31.04L44.64-31.04Q46.02-31.23 47.49-31.23L47.49-31.23L47.49-31.23Q48.90-31.23 50.02-31.04L50.02-31.04L50.02-31.04Q51.14-30.85 51.90-30.27L51.90-30.27L51.90-30.27Q52.67-29.70 53.09-28.70L53.09-28.70L53.09-28.70Q53.50-27.71 53.50-26.11L53.50-26.11L53.50-12.35L53.50-12.35Q53.50-9.73 54.78-8.61L54.78-8.61L54.78-8.61Q56.06-7.49 58.50-7.49L58.50-7.49L58.50-7.49Q59.97-7.49 60.90-7.74L60.90-7.74L60.90-7.74Q61.82-8 62.34-8.26L62.34-8.26L62.34-30.66L62.34-30.66Q62.98-30.85 64.35-31.04L64.35-31.04L64.35-31.04Q65.73-31.23 67.20-31.23L67.20-31.23L67.20-31.23Q68.61-31.23 69.73-31.04L69.73-31.04L69.73-31.04Q70.85-30.85 71.62-30.27L71.62-30.27L71.62-30.27Q72.38-29.70 72.80-28.70L72.80-28.70L72.80-28.70Q73.22-27.71 73.22-26.11L73.22-26.11L73.22-6.66L73.22-6.66Q73.22-3.46 70.53-1.86L70.53-1.86L70.53-1.86Q68.29-0.45 65.18 0.29L65.18 0.29L65.18 0.29Q62.08 1.02 58.43 1.02L58.43 1.02L58.43 1.02Q54.98 1.02 52.06 0.26L52.06 0.26L52.06 0.26Q49.15-0.51 47.04-2.11L47.04-2.11L47.04-2.11Q44.93-3.71 43.78-6.24L43.78-6.24L43.78-6.24Q42.62-8.77 42.62-12.35L42.62-12.35ZM84.74-7.94L84.74-7.94L84.74-7.94Q84.03-9.54 83.23-11.52L83.23-11.52L83.23-11.52Q82.43-13.50 81.57-16.06L81.57-16.06L81.57-16.06Q80.70-18.62 79.78-21.92L79.78-21.92L79.78-21.92Q78.85-25.22 77.82-29.50L77.82-29.50L77.82-29.50Q78.72-30.40 80.22-31.07L80.22-31.07L80.22-31.07Q81.73-31.74 83.52-31.74L83.52-31.74L83.52-31.74Q85.76-31.74 87.23-30.82L87.23-30.82L87.23-30.82Q88.70-29.89 89.41-27.33L89.41-27.33L94.46-9.73L94.72-9.73L94.72-9.73Q95.49-11.90 96.22-14.46L96.22-14.46L96.22-14.46Q96.96-17.02 97.66-19.74L97.66-19.74L97.66-19.74Q98.37-22.46 98.98-25.18L98.98-25.18L98.98-25.18Q99.58-27.90 100.03-30.53L100.03-30.53L100.03-30.53Q102.34-31.74 105.09-31.74L105.09-31.74L105.09-31.74Q107.33-31.74 108.80-30.78L108.80-30.78L108.80-30.78Q110.27-29.82 110.27-27.46L110.27-27.46L110.27-27.46Q110.27-25.73 109.82-23.46L109.82-23.46L109.82-23.46Q109.38-21.18 108.64-18.62L108.64-18.62L108.64-18.62Q107.90-16.06 106.91-13.34L106.91-13.34L106.91-13.34Q105.92-10.62 104.83-8L104.83-8L104.83-8Q103.74-5.38 102.59-3.04L102.59-3.04L102.59-3.04Q101.44-0.70 100.35 1.15L100.35 1.15L100.35 1.15Q98.56 4.29 97.02 6.27L97.02 6.27L97.02 6.27Q95.49 8.26 94.08 9.38L94.08 9.38L94.08 9.38Q92.67 10.50 91.26 10.91L91.26 10.91L91.26 10.91Q89.86 11.33 88.32 11.33L88.32 11.33L88.32 11.33Q85.63 11.33 83.97 9.73L83.97 9.73L83.97 9.73Q82.30 8.13 81.98 5.57L81.98 5.57L81.98 5.57Q84.03 3.97 86.08 2.02L86.08 2.02L86.08 2.02Q88.13 0.06 89.79-1.98L89.79-1.98L89.79-1.98Q88.70-2.30 87.46-3.49L87.46-3.49L87.46-3.49Q86.21-4.67 84.74-7.94ZM110.66-5.18L110.66-5.18L110.66-5.18Q110.66-7.87 112.32-9.66L112.32-9.66L112.32-9.66Q113.98-11.46 116.86-11.46L116.86-11.46L116.86-11.46Q119.74-11.46 121.41-9.66L121.41-9.66L121.41-9.66Q123.07-7.87 123.07-5.18L123.07-5.18L123.07-5.18Q123.07-2.50 121.41-0.70L121.41-0.70L121.41-0.70Q119.74 1.09 116.86 1.09L116.86 1.09L116.86 1.09Q113.98 1.09 112.32-0.70L112.32-0.70L112.32-0.70Q110.66-2.50 110.66-5.18ZM155.14-14.53L152.45-15.42L152.45-15.42Q149.63-16.38 147.33-17.38L147.33-17.38L147.33-17.38Q145.02-18.37 143.36-19.78L143.36-19.78L143.36-19.78Q141.70-21.18 140.77-23.14L140.77-23.14L140.77-23.14Q139.84-25.09 139.84-27.90L139.84-27.90L139.84-27.90Q139.84-33.34 144.03-36.61L144.03-36.61L144.03-36.61Q148.22-39.87 155.78-39.87L155.78-39.87L155.78-39.87Q158.53-39.87 160.90-39.49L160.90-39.49L160.90-39.49Q163.26-39.10 164.96-38.30L164.96-38.30L164.96-38.30Q166.66-37.50 167.62-36.26L167.62-36.26L167.62-36.26Q168.58-35.01 168.58-33.34L168.58-33.34L168.58-33.34Q168.58-31.68 167.81-30.50L167.81-30.50L167.81-30.50Q167.04-29.31 165.95-28.48L165.95-28.48L165.95-28.48Q164.54-29.38 162.18-30.05L162.18-30.05L162.18-30.05Q159.81-30.72 156.99-30.72L156.99-30.72L156.99-30.72Q154.11-30.72 152.77-29.92L152.77-29.92L152.77-29.92Q151.42-29.12 151.42-27.90L151.42-27.90L151.42-27.90Q151.42-26.94 152.26-26.34L152.26-26.34L152.26-26.34Q153.09-25.73 154.75-25.22L154.75-25.22L158.14-24.13L158.14-24.13Q164.16-22.21 167.39-19.23L167.39-19.23L167.39-19.23Q170.62-16.26 170.62-11.14L170.62-11.14L170.62-11.14Q170.62-5.70 166.34-2.34L166.34-2.34L166.34-2.34Q162.05 1.02 153.73 1.02L153.73 1.02L153.73 1.02Q150.78 1.02 148.26 0.54L148.26 0.54L148.26 0.54Q145.73 0.06 143.84-0.86L143.84-0.86L143.84-0.86Q141.95-1.79 140.90-3.17L140.90-3.17L140.90-3.17Q139.84-4.54 139.84-6.34L139.84-6.34L139.84-6.34Q139.84-8.19 140.93-9.50L140.93-9.50L140.93-9.50Q142.02-10.82 143.30-11.52L143.30-11.52L143.30-11.52Q145.09-10.11 147.68-9.09L147.68-9.09L147.68-9.09Q150.27-8.06 153.34-8.06L153.34-8.06L153.34-8.06Q156.48-8.06 157.76-9.02L157.76-9.02L157.76-9.02Q159.04-9.98 159.04-11.26L159.04-11.26L159.04-11.26Q159.04-12.54 158.02-13.22L158.02-13.22L158.02-13.22Q156.99-13.89 155.14-14.53L155.14-14.53ZM192.45 1.02L192.45 1.02L192.45 1.02Q188.67 1.02 185.44-0.03L185.44-0.03L185.44-0.03Q182.21-1.09 179.81-3.20L179.81-3.20L179.81-3.20Q177.41-5.31 176.03-8.51L176.03-8.51L176.03-8.51Q174.66-11.71 174.66-16L174.66-16L174.66-16Q174.66-20.22 176.03-23.26L176.03-23.26L176.03-23.26Q177.41-26.30 179.65-28.26L179.65-28.26L179.65-28.26Q181.89-30.21 184.77-31.14L184.77-31.14L184.77-31.14Q187.65-32.06 190.66-32.06L190.66-32.06L190.66-32.06Q194.05-32.06 196.83-31.04L196.83-31.04L196.83-31.04Q199.62-30.02 201.63-28.22L201.63-28.22L201.63-28.22Q203.65-26.43 204.77-23.94L204.77-23.94L204.77-23.94Q205.89-21.44 205.89-18.50L205.89-18.50L205.89-18.50Q205.89-16.32 204.67-15.17L204.67-15.17L204.67-15.17Q203.46-14.02 201.28-13.70L201.28-13.70L185.47-11.33L185.47-11.33Q186.18-9.22 188.35-8.16L188.35-8.16L188.35-8.16Q190.53-7.10 193.34-7.10L193.34-7.10L193.34-7.10Q195.97-7.10 198.30-7.78L198.30-7.78L198.30-7.78Q200.64-8.45 202.11-9.34L202.11-9.34L202.11-9.34Q203.14-8.70 203.84-7.55L203.84-7.55L203.84-7.55Q204.54-6.40 204.54-5.12L204.54-5.12L204.54-5.12Q204.54-2.24 201.86-0.83L201.86-0.83L201.86-0.83Q199.81 0.26 197.25 0.64L197.25 0.64L197.25 0.64Q194.69 1.02 192.45 1.02ZM190.66-24.13L190.66-24.13L190.66-24.13Q189.12-24.13 188-23.62L188-23.62L188-23.62Q186.88-23.10 186.18-22.30L186.18-22.30L186.18-22.30Q185.47-21.50 185.12-20.51L185.12-20.51L185.12-20.51Q184.77-19.52 184.70-18.50L184.70-18.50L195.65-20.29L195.65-20.29Q195.46-21.57 194.24-22.85L194.24-22.85L194.24-22.85Q193.02-24.13 190.66-24.13ZM222.21-37.18L222.21-0.06L222.21-0.06Q221.50 0.06 220.13 0.29L220.13 0.29L220.13 0.29Q218.75 0.51 217.34 0.51L217.34 0.51L217.34 0.51Q215.94 0.51 214.82 0.32L214.82 0.32L214.82 0.32Q213.70 0.13 212.93-0.45L212.93-0.45L212.93-0.45Q212.16-1.02 211.74-2.02L211.74-2.02L211.74-2.02Q211.33-3.01 211.33-4.61L211.33-4.61L211.33-41.73L211.33-41.73Q212.03-41.86 213.41-42.08L213.41-42.08L213.41-42.08Q214.78-42.30 216.19-42.30L216.19-42.30L216.19-42.30Q217.60-42.30 218.72-42.11L218.72-42.11L218.72-42.11Q219.84-41.92 220.61-41.34L220.61-41.34L220.61-41.34Q221.38-40.77 221.79-39.78L221.79-39.78L221.79-39.78Q222.21-38.78 222.21-37.18L222.21-37.18ZM240.13-37.18L240.13-0.06L240.13-0.06Q239.42 0.06 238.05 0.29L238.05 0.29L238.05 0.29Q236.67 0.51 235.26 0.51L235.26 0.51L235.26 0.51Q233.86 0.51 232.74 0.32L232.74 0.32L232.74 0.32Q231.62 0.13 230.85-0.45L230.85-0.45L230.85-0.45Q230.08-1.02 229.66-2.02L229.66-2.02L229.66-2.02Q229.25-3.01 229.25-4.61L229.25-4.61L229.25-41.73L229.25-41.73Q229.95-41.86 231.33-42.08L231.33-42.08L231.33-42.08Q232.70-42.30 234.11-42.30L234.11-42.30L234.11-42.30Q235.52-42.30 236.64-42.11L236.64-42.11L236.64-42.11Q237.76-41.92 238.53-41.34L238.53-41.34L238.53-41.34Q239.30-40.77 239.71-39.78L239.71-39.78L239.71-39.78Q240.13-38.78 240.13-37.18L240.13-37.18ZM245.06-5.18L245.06-5.18L245.06-5.18Q245.06-7.87 246.72-9.66L246.72-9.66L246.72-9.66Q248.38-11.46 251.26-11.46L251.26-11.46L251.26-11.46Q254.14-11.46 255.81-9.66L255.81-9.66L255.81-9.66Q257.47-7.87 257.47-5.18L257.47-5.18L257.47-5.18Q257.47-2.50 255.81-0.70L255.81-0.70L255.81-0.70Q254.14 1.09 251.26 1.09L251.26 1.09L251.26 1.09Q248.38 1.09 246.72-0.70L246.72-0.70L246.72-0.70Q245.06-2.50 245.06-5.18ZM295.62-30.98L295.62-30.98L295.62-30.98Q290.69-30.98 288.06-27.97L288.06-27.97L288.06-27.97Q285.44-24.96 285.44-19.46L285.44-19.46L285.44-19.46Q285.44-13.89 288.35-10.88L288.35-10.88L288.35-10.88Q291.26-7.87 296.19-7.87L296.19-7.87L296.19-7.87Q298.82-7.87 300.64-8.58L300.64-8.58L300.64-8.58Q302.46-9.28 304.13-10.18L304.13-10.18L304.13-10.18Q305.22-9.28 305.82-8.03L305.82-8.03L305.82-8.03Q306.43-6.78 306.43-5.12L306.43-5.12L306.43-5.12Q306.43-2.50 303.52-0.67L303.52-0.67L303.52-0.67Q300.61 1.15 294.66 1.15L294.66 1.15L294.66 1.15Q290.37 1.15 286.59-0.06L286.59-0.06L286.59-0.06Q282.82-1.28 280.00-3.81L280.00-3.81L280.00-3.81Q277.18-6.34 275.55-10.21L275.55-10.21L275.55-10.21Q273.92-14.08 273.92-19.46L273.92-19.46L273.92-19.46Q273.92-24.45 275.49-28.26L275.49-28.26L275.49-28.26Q277.06-32.06 279.78-34.69L279.78-34.69L279.78-34.69Q282.50-37.31 286.14-38.66L286.14-38.66L286.14-38.66Q289.79-40 293.95-40L293.95-40L293.95-40Q299.84-40 303.07-38.08L303.07-38.08L303.07-38.08Q306.30-36.16 306.30-33.15L306.30-33.15L306.30-33.15Q306.30-31.49 305.47-30.27L305.47-30.27L305.47-30.27Q304.64-29.06 303.55-28.35L303.55-28.35L303.55-28.35Q301.89-29.44 300.00-30.21L300.00-30.21L300.00-30.21Q298.11-30.98 295.62-30.98ZM324.86-6.91L324.86-6.91L324.86-6.91Q325.95-6.91 327.26-7.14L327.26-7.14L327.26-7.14Q328.58-7.36 329.22-7.74L329.22-7.74L329.22-12.86L324.61-12.48L324.61-12.48Q322.82-12.35 321.66-11.71L321.66-11.71L321.66-11.71Q320.51-11.07 320.51-9.79L320.51-9.79L320.51-9.79Q320.51-8.51 321.50-7.71L321.50-7.71L321.50-7.71Q322.50-6.91 324.86-6.91ZM324.35-32.06L324.35-32.06L324.35-32.06Q327.81-32.06 330.66-31.36L330.66-31.36L330.66-31.36Q333.50-30.66 335.52-29.22L335.52-29.22L335.52-29.22Q337.54-27.78 338.62-25.57L338.62-25.57L338.62-25.57Q339.71-23.36 339.71-20.35L339.71-20.35L339.71-6.02L339.71-6.02Q339.71-4.35 338.78-3.30L338.78-3.30L338.78-3.30Q337.86-2.24 336.58-1.47L336.58-1.47L336.58-1.47Q332.42 1.02 324.86 1.02L324.86 1.02L324.86 1.02Q321.47 1.02 318.75 0.38L318.75 0.38L318.75 0.38Q316.03-0.26 314.08-1.54L314.08-1.54L314.08-1.54Q312.13-2.82 311.07-4.80L311.07-4.80L311.07-4.80Q310.02-6.78 310.02-9.41L310.02-9.41L310.02-9.41Q310.02-13.82 312.64-16.19L312.64-16.19L312.64-16.19Q315.26-18.56 320.77-19.14L320.77-19.14L329.15-20.03L329.15-20.48L329.15-20.48Q329.15-22.34 327.52-23.14L327.52-23.14L327.52-23.14Q325.89-23.94 322.82-23.94L322.82-23.94L322.82-23.94Q320.38-23.94 318.08-23.42L318.08-23.42L318.08-23.42Q315.78-22.91 313.92-22.14L313.92-22.14L313.92-22.14Q313.09-22.72 312.51-23.90L312.51-23.90L312.51-23.90Q311.94-25.09 311.94-26.37L311.94-26.37L311.94-26.37Q311.94-28.03 312.74-29.02L312.74-29.02L312.74-29.02Q313.54-30.02 315.20-30.72L315.20-30.72L315.20-30.72Q317.06-31.42 319.58-31.74L319.58-31.74L319.58-31.74Q322.11-32.06 324.35-32.06ZM357.25-21.89L357.25-0.06L357.25-0.06Q356.61 0.13 355.23 0.32L355.23 0.32L355.23 0.32Q353.86 0.51 352.38 0.51L352.38 0.51L352.38 0.51Q350.98 0.51 349.86 0.32L349.86 0.32L349.86 0.32Q348.74 0.13 347.97-0.45L347.97-0.45L347.97-0.45Q347.20-1.02 346.78-2.02L346.78-2.02L346.78-2.02Q346.37-3.01 346.37-4.61L346.37-4.61L346.37-23.81L346.37-23.81Q346.37-25.28 346.91-26.34L346.91-26.34L346.91-26.34Q347.46-27.39 348.48-28.22L348.48-28.22L348.48-28.22Q349.50-29.06 351.01-29.73L351.01-29.73L351.01-29.73Q352.51-30.40 354.24-30.91L354.24-30.91L354.24-30.91Q355.97-31.42 357.82-31.71L357.82-31.71L357.82-31.71Q359.68-32 361.54-32L361.54-32L361.54-32Q364.61-32 366.40-30.82L366.40-30.82L366.40-30.82Q368.19-29.63 368.19-26.94L368.19-26.94L368.19-26.94Q368.19-26.05 367.94-25.18L367.94-25.18L367.94-25.18Q367.68-24.32 367.30-23.62L367.30-23.62L367.30-23.62Q365.95-23.62 364.54-23.49L364.54-23.49L364.54-23.49Q363.14-23.36 361.79-23.10L361.79-23.10L361.79-23.10Q360.45-22.85 359.26-22.56L359.26-22.56L359.26-22.56Q358.08-22.27 357.25-21.89L357.25-21.89Z" fill="#ffffff"></path></g></g><style>text {
  font-size: 64px;
  font-family: Arial Black;
  dominant-baseline: central;
  text-anchor: middle;
}</style></svg>