<svg width="259.6099487304688px" height="156.31999816894532px" xmlns="http://www.w3.org/2000/svg" viewBox="120.19502563476561 -3.159999084472659 259.6099487304688 156.31999816894532" style="background: none;" preserveAspectRatio="xMidYMid"><defs><filter id="editing-extrude-glow"><feFlood flood-color="none" result="flood-1"></feFlood><feMorphology operator="erode" radius="1" in="SourceAlpha" result="erode"></feMorphology><feComposite operator="in" in="flood-1" in2="erode" result="comp1"></feComposite><feConvolveMatrix order="0,0" divisor="1" in="comp1" result="convolve" kernelMatrix=""></feConvolveMatrix><feOffset dx="0" dy="0" in="convolve" result="extrude"></feOffset><feComposite operator="in" in="flood-1" in2="extrude" result="comp-extrude"></feComposite><feFlood flood-color="none" result="flood-2"></feFlood><feComposite operator="in" in="flood-2" in2="SourceAlpha" result="comp2"></feComposite><feMorphology operator="dilate" radius="1" in="comp2" result="dilate"></feMorphology><feOffset dx="0" dy="0" in="dilate" result="offset"></feOffset><feGaussianBlur in="offset" stdDeviation="5.8" result="blur"></feGaussianBlur><feComponentTransfer in="blur" result="shadow"><feFuncA type="linear" slope="0.8" intercept="-0.2"></feFuncA></feComponentTransfer><feMerge><feMergeNode in="shadow"></feMergeNode><feMergeNode in="comp-extrude"></feMergeNode><feMergeNode in="SourceGraphic"></feMergeNode></feMerge></filter></defs><g filter="url(#editing-extrude-glow)"><g transform="translate(162.54001712799072, 94.84000205993652)"><path d="M26.43-7.68L27.39-0.90L27.39-0.90Q22.21 0.83 15.81 0.83L15.81 0.83L15.81 0.83Q8.64 0.83 5.09-2.78L5.09-2.78L5.09-2.78Q1.54-6.40 1.54-14.08L1.54-14.08L1.54-14.08Q1.54-17.86 2.56-21.54L2.56-21.54L2.56-21.54Q3.58-25.22 4.74-26.50L4.74-26.50L4.74-26.50Q6.08-27.97 10.02-28.99L10.02-28.99L10.02-28.99Q13.95-30.02 18.18-30.02L18.18-30.02L18.18-30.02Q22.59-30.02 27.07-29.25L27.07-29.25L27.07-29.25Q26.94-27.65 26.66-25.50L26.66-25.50L26.66-25.50Q26.37-23.36 26.05-21.70L26.05-21.70L26.05-21.70Q22.08-21.95 18.56-21.95L18.56-21.95L18.56-21.95Q15.10-21.95 14.14-21.57L14.14-21.57L14.14-21.57Q13.63-21.38 13.22-18.94L13.22-18.94L13.22-18.94Q12.80-16.51 12.80-14.40L12.80-14.40L12.80-14.40Q12.80-11.58 13.60-10.08L13.60-10.08L13.60-10.08Q14.40-8.58 16.13-8L16.13-8L16.13-8Q17.86-7.42 20.80-7.42L20.80-7.42L20.80-7.42Q22.08-7.42 26.43-7.68L26.43-7.68ZM57.66 0L48.58 0L47.55-4.03L47.55-4.03Q44.61 0.77 39.36 0.77L39.36 0.77L39.36 0.77Q35.07 0.77 32.35-1.63L32.35-1.63L32.35-1.63Q29.63-4.03 29.63-8.38L29.63-8.38L29.63-8.38Q29.63-11.07 31.20-13.09L31.20-13.09L31.20-13.09Q32.77-15.10 35.52-15.94L35.52-15.94L35.52-15.94Q39.10-16.96 46.59-17.09L46.59-17.09L46.59-17.09Q46.59-21.31 46.21-21.57L46.21-21.57L46.21-21.57Q45.89-21.82 44.16-21.82L44.16-21.82L44.16-21.82Q43.07-21.82 41.15-21.70L41.15-21.70L41.15-21.70Q38.08-21.57 32.83-20.99L32.83-20.99L32.83-20.99Q32.32-24.45 32.06-28.42L32.06-28.42L32.06-28.42Q35.46-29.12 39.17-29.60L39.17-29.60L39.17-29.60Q42.88-30.08 45.82-30.08L45.82-30.08L45.82-30.08Q50.94-30.08 53.50-28.38L53.50-28.38L53.50-28.38Q56.06-26.69 56.83-23.94L56.83-23.94L56.83-23.94Q57.60-21.18 57.54-16.96L57.54-16.96L57.47-7.55L57.66 0ZM43.07-6.40L43.07-6.40Q44.74-6.40 46.59-7.04L46.59-7.04L46.59-11.78L46.08-11.78L46.08-11.78Q41.34-11.78 40.83-11.26L40.83-11.26L40.83-11.26Q40.51-10.94 40.35-10.30L40.35-10.30L40.35-10.30Q40.19-9.66 40.19-9.09L40.19-9.09L40.19-9.09Q40.19-7.55 40.90-6.98L40.90-6.98L40.90-6.98Q41.60-6.40 43.07-6.40L43.07-6.40ZM80.70-30.08L80.70-30.08Q81.54-30.08 82.46-29.89L82.46-29.89L82.46-29.89Q83.39-29.70 83.84-29.44L83.84-29.44L83.84-29.44Q83.84-28.03 83.52-24.80L83.52-24.80L83.52-24.80Q83.20-21.57 82.94-20.22L82.94-20.22L82.94-20.22Q82.30-20.29 80.58-20.29L80.58-20.29L80.58-20.29Q76.54-20.29 73.41-19.84L73.41-19.84L73.41 0L62.46 0L62.46-29.44L71.62-29.44L72.90-24.70L72.96-24.70L72.96-24.70Q74.82-27.14 76.93-28.61L76.93-28.61L76.93-28.61Q79.04-30.08 80.70-30.08L80.70-30.08ZM110.53-9.98L110.53-9.98Q110.53-4.29 106.91-1.79L106.91-1.79L106.91-1.79Q103.30 0.70 96.64 0.70L96.64 0.70L96.64 0.70Q91.97 0.70 85.89-0.64L85.89-0.64L85.89-0.64Q86.02-1.92 86.50-4.32L86.50-4.32L86.50-4.32Q86.98-6.72 87.30-8L87.30-8L87.30-8Q89.60-7.62 92.42-7.39L92.42-7.39L92.42-7.39Q95.23-7.17 97.22-7.17L97.22-7.17L97.22-7.17Q98.94-7.17 99.33-7.36L99.33-7.36L99.33-7.36Q99.39-7.42 99.49-7.71L99.49-7.71L99.49-7.71Q99.58-8 99.58-8.32L99.58-8.32L99.58-8.32Q99.58-9.60 97.98-10.05L97.98-10.05L97.98-10.05Q97.47-10.18 94.08-11.14L94.08-11.14L94.08-11.14Q90.69-12.10 88.54-14.62L88.54-14.62L88.54-14.62Q86.40-17.15 86.40-20.93L86.40-20.93L86.40-20.93Q86.40-22.91 87.30-25.34L87.30-25.34L87.30-25.34Q88.19-27.78 89.22-28.42L89.22-28.42L89.22-28.42Q89.98-28.93 92.93-29.47L92.93-29.47L92.93-29.47Q95.87-30.02 98.37-30.02L98.37-30.02L98.37-30.02Q103.68-30.02 109.06-29.25L109.06-29.25L109.06-29.25Q109.06-28.10 108.74-25.38L108.74-25.38L108.74-25.38Q108.42-22.66 108.16-21.95L108.16-21.95L108.16-21.95Q102.72-22.66 99.39-22.66L99.39-22.66L99.39-22.66Q97.66-22.66 97.15-22.46L97.15-22.46L97.15-22.46Q97.02-22.40 96.90-22.11L96.90-22.11L96.90-22.11Q96.77-21.82 96.77-21.38L96.77-21.38L96.77-21.38Q96.77-20.48 97.34-20.10L97.34-20.10L97.34-20.10Q97.92-19.65 100.35-19.01L100.35-19.01L100.35-19.01Q103.23-18.18 105.31-17.28L105.31-17.28L105.31-17.28Q107.39-16.38 108.96-14.59L108.96-14.59L108.96-14.59Q110.53-12.80 110.53-9.98L110.53-9.98ZM132.03-7.68L132.03-7.68Q133.63-7.68 137.98-8L137.98-8L137.98-8Q138.56-8 140.10-8.13L140.10-8.13L141.06-1.54L141.06-1.54Q136.13 0.77 128.26 0.77L128.26 0.77L128.26 0.77Q120.90 0.77 116.96-2.94L116.96-2.94L116.96-2.94Q113.02-6.66 113.02-14.14L113.02-14.14L113.02-14.14Q113.02-17.98 114.02-21.57L114.02-21.57L114.02-21.57Q115.01-25.15 116.29-26.56L116.29-26.56L116.29-26.56Q117.63-27.97 121.28-28.99L121.28-28.99L121.28-28.99Q124.93-30.02 128.51-30.02L128.51-30.02L128.51-30.02Q134.27-30.02 137.15-27.97L137.15-27.97L137.15-27.97Q140.03-25.92 140.93-22.30L140.93-22.30L140.93-22.30Q141.82-18.69 141.82-12.61L141.82-12.61L141.82-12.61Q137.47-12.35 133.31-12.35L133.31-12.35L124.22-12.35L124.22-12.35Q124.22-10.30 125.09-9.28L125.09-9.28L125.09-9.28Q125.95-8.26 127.55-7.97L127.55-7.97L127.55-7.97Q129.15-7.68 132.03-7.68L132.03-7.68ZM124.86-22.40L124.86-22.40Q124.48-22.21 124.29-20.74L124.29-20.74L124.29-20.74Q124.10-19.26 124.03-17.41L124.03-17.41L127.36-17.41L127.36-17.41Q130.37-17.41 131.71-17.47L131.71-17.47L131.71-17.47Q131.71-20.54 130.85-21.82L130.85-21.82L130.85-21.82Q129.98-23.10 127.87-23.10L127.87-23.10L127.87-23.10Q126.14-23.10 124.86-22.40L124.86-22.40ZM145.86 0L145.86-38.40L156.80-38.85L156.80 0L145.86 0ZM162.43 0L162.43-38.40L173.38-38.85L173.38 0L162.43 0Z" fill="#ffffff"></path></g></g><style>text {
  font-size: 64px;
  font-family: Arial Black;
  dominant-baseline: central;
  text-anchor: middle;
}</style></svg>