<svg width="285.4550109863281px" height="173.6px" xmlns="http://www.w3.org/2000/svg" viewBox="107.27249450683595 -11.799999999999997 285.4550109863281 173.6" style="background: none;" preserveAspectRatio="xMidYMid"><defs><filter id="editing-extrude-glow"><feFlood flood-color="rgba(0%,0%,0%,0)" result="flood-1"></feFlood><feMorphology operator="erode" radius="1" in="SourceAlpha" result="erode"></feMorphology><feComposite operator="in" in="flood-1" in2="erode" result="comp1"></feComposite><feConvolveMatrix order="3,3" divisor="1" in="comp1" result="convolve" kernelMatrix="0 0 0 1 1 1 0 0 0"></feConvolveMatrix><feOffset dx="-3" dy="0" in="convolve" result="extrude"></feOffset><feComposite operator="in" in="flood-1" in2="extrude" result="comp-extrude"></feComposite><feFlood flood-color="rgba(0%,0%,0%,0)" result="flood-2"></feFlood><feComposite operator="in" in="flood-2" in2="SourceAlpha" result="comp2"></feComposite><feMorphology operator="dilate" radius="1" in="comp2" result="dilate"></feMorphology><feOffset dx="-4.5" dy="0" in="dilate" result="offset"></feOffset><feGaussianBlur in="offset" stdDeviation="5.8" result="blur"></feGaussianBlur><feComponentTransfer in="blur" result="shadow"><feFuncA type="linear" slope="0.8" intercept="-0.2"></feFuncA></feComponentTransfer><feMerge><feMergeNode in="shadow"></feMergeNode><feMergeNode in="comp-extrude"></feMergeNode><feMergeNode in="SourceGraphic"></feMergeNode></feMerge></filter></defs><g filter="url(#editing-extrude-glow)"><g transform="translate(153.17001676559448, 96.69499969482422)"><path d="M20.86-23.49L20.86-23.49L20.86-23.49Q19.26-23.49 17.82-22.98L17.82-22.98L17.82-22.98Q16.38-22.46 15.33-21.47L15.33-21.47L15.33-21.47Q14.27-20.48 13.63-19.01L13.63-19.01L13.63-19.01Q12.99-17.54 12.99-15.55L12.99-15.55L12.99-15.55Q12.99-11.58 15.26-9.60L15.26-9.60L15.26-9.60Q17.54-7.62 20.80-7.62L20.80-7.62L20.80-7.62Q22.72-7.62 24.13-8.06L24.13-8.06L24.13-8.06Q25.54-8.51 26.62-9.02L26.62-9.02L26.62-9.02Q27.90-8.13 28.54-7.07L28.54-7.07L28.54-7.07Q29.18-6.02 29.18-4.54L29.18-4.54L29.18-4.54Q29.18-1.92 26.69-0.48L26.69-0.48L26.69-0.48Q24.19 0.96 19.78 0.96L19.78 0.96L19.78 0.96Q15.74 0.96 12.48-0.22L12.48-0.22L12.48-0.22Q9.22-1.41 6.88-3.55L6.88-3.55L6.88-3.55Q4.54-5.70 3.26-8.70L3.26-8.70L3.26-8.70Q1.98-11.71 1.98-15.36L1.98-15.36L1.98-15.36Q1.98-19.58 3.36-22.75L3.36-22.75L3.36-22.75Q4.74-25.92 7.10-27.97L7.10-27.97L7.10-27.97Q9.47-30.02 12.58-31.04L12.58-31.04L12.58-31.04Q15.68-32.06 19.14-32.06L19.14-32.06L19.14-32.06Q23.74-32.06 26.24-30.40L26.24-30.40L26.24-30.40Q28.74-28.74 28.74-26.11L28.74-26.11L28.74-26.11Q28.74-24.90 28.16-23.84L28.16-23.84L28.16-23.84Q27.58-22.78 26.82-22.02L26.82-22.02L26.82-22.02Q25.73-22.53 24.19-23.01L24.19-23.01L24.19-23.01Q22.66-23.49 20.86-23.49ZM47.94-6.91L47.94-6.91L47.94-6.91Q49.02-6.91 50.34-7.14L50.34-7.14L50.34-7.14Q51.65-7.36 52.29-7.74L52.29-7.74L52.29-12.86L47.68-12.48L47.68-12.48Q45.89-12.35 44.74-11.71L44.74-11.71L44.74-11.71Q43.58-11.07 43.58-9.79L43.58-9.79L43.58-9.79Q43.58-8.51 44.58-7.71L44.58-7.71L44.58-7.71Q45.57-6.91 47.94-6.91ZM47.42-32.06L47.42-32.06L47.42-32.06Q50.88-32.06 53.73-31.36L53.73-31.36L53.73-31.36Q56.58-30.66 58.59-29.22L58.59-29.22L58.59-29.22Q60.61-27.78 61.70-25.57L61.70-25.57L61.70-25.57Q62.78-23.36 62.78-20.35L62.78-20.35L62.78-6.02L62.78-6.02Q62.78-4.35 61.86-3.30L61.86-3.30L61.86-3.30Q60.93-2.24 59.65-1.47L59.65-1.47L59.65-1.47Q55.49 1.02 47.94 1.02L47.94 1.02L47.94 1.02Q44.54 1.02 41.82 0.38L41.82 0.38L41.82 0.38Q39.10-0.26 37.15-1.54L37.15-1.54L37.15-1.54Q35.20-2.82 34.14-4.80L34.14-4.80L34.14-4.80Q33.09-6.78 33.09-9.41L33.09-9.41L33.09-9.41Q33.09-13.82 35.71-16.19L35.71-16.19L35.71-16.19Q38.34-18.56 43.84-19.14L43.84-19.14L52.22-20.03L52.22-20.48L52.22-20.48Q52.22-22.34 50.59-23.14L50.59-23.14L50.59-23.14Q48.96-23.94 45.89-23.94L45.89-23.94L45.89-23.94Q43.46-23.94 41.15-23.42L41.15-23.42L41.15-23.42Q38.85-22.91 36.99-22.14L36.99-22.14L36.99-22.14Q36.16-22.72 35.58-23.90L35.58-23.90L35.58-23.90Q35.01-25.09 35.01-26.37L35.01-26.37L35.01-26.37Q35.01-28.03 35.81-29.02L35.81-29.02L35.81-29.02Q36.61-30.02 38.27-30.72L38.27-30.72L38.27-30.72Q40.13-31.42 42.66-31.74L42.66-31.74L42.66-31.74Q45.18-32.06 47.42-32.06ZM80.32-21.89L80.32-0.06L80.32-0.06Q79.68 0.13 78.30 0.32L78.30 0.32L78.30 0.32Q76.93 0.51 75.46 0.51L75.46 0.51L75.46 0.51Q74.05 0.51 72.93 0.32L72.93 0.32L72.93 0.32Q71.81 0.13 71.04-0.45L71.04-0.45L71.04-0.45Q70.27-1.02 69.86-2.02L69.86-2.02L69.86-2.02Q69.44-3.01 69.44-4.61L69.44-4.61L69.44-23.81L69.44-23.81Q69.44-25.28 69.98-26.34L69.98-26.34L69.98-26.34Q70.53-27.39 71.55-28.22L71.55-28.22L71.55-28.22Q72.58-29.06 74.08-29.73L74.08-29.73L74.08-29.73Q75.58-30.40 77.31-30.91L77.31-30.91L77.31-30.91Q79.04-31.42 80.90-31.71L80.90-31.71L80.90-31.71Q82.75-32 84.61-32L84.61-32L84.61-32Q87.68-32 89.47-30.82L89.47-30.82L89.47-30.82Q91.26-29.63 91.26-26.94L91.26-26.94L91.26-26.94Q91.26-26.05 91.01-25.18L91.01-25.18L91.01-25.18Q90.75-24.32 90.37-23.62L90.37-23.62L90.37-23.62Q89.02-23.62 87.62-23.49L87.62-23.49L87.62-23.49Q86.21-23.36 84.86-23.10L84.86-23.10L84.86-23.10Q83.52-22.85 82.34-22.56L82.34-22.56L82.34-22.56Q81.15-22.27 80.32-21.89L80.32-21.89ZM121.98-9.28L121.98-9.28L121.98-9.28Q121.98-4.42 118.34-1.66L118.34-1.66L118.34-1.66Q114.69 1.09 107.58 1.09L107.58 1.09L107.58 1.09Q104.90 1.09 102.59 0.70L102.59 0.70L102.59 0.70Q100.29 0.32 98.66-0.48L98.66-0.48L98.66-0.48Q97.02-1.28 96.10-2.50L96.10-2.50L96.10-2.50Q95.17-3.71 95.17-5.38L95.17-5.38L95.17-5.38Q95.17-6.91 95.81-7.97L95.81-7.97L95.81-7.97Q96.45-9.02 97.34-9.73L97.34-9.73L97.34-9.73Q99.20-8.70 101.60-7.90L101.60-7.90L101.60-7.90Q104-7.10 107.14-7.10L107.14-7.10L107.14-7.10Q109.12-7.10 110.18-7.68L110.18-7.68L110.18-7.68Q111.23-8.26 111.23-9.22L111.23-9.22L111.23-9.22Q111.23-10.11 110.46-10.62L110.46-10.62L110.46-10.62Q109.70-11.14 107.90-11.46L107.90-11.46L105.98-11.84L105.98-11.84Q100.42-12.93 97.70-15.26L97.70-15.26L97.70-15.26Q94.98-17.60 94.98-21.95L94.98-21.95L94.98-21.95Q94.98-24.32 96-26.24L96-26.24L96-26.24Q97.02-28.16 98.88-29.44L98.88-29.44L98.88-29.44Q100.74-30.72 103.33-31.42L103.33-31.42L103.33-31.42Q105.92-32.13 109.06-32.13L109.06-32.13L109.06-32.13Q111.42-32.13 113.50-31.78L113.50-31.78L113.50-31.78Q115.58-31.42 117.12-30.72L117.12-30.72L117.12-30.72Q118.66-30.02 119.55-28.90L119.55-28.90L119.55-28.90Q120.45-27.78 120.45-26.24L120.45-26.24L120.45-26.24Q120.45-24.77 119.90-23.71L119.90-23.71L119.90-23.71Q119.36-22.66 118.53-21.95L118.53-21.95L118.53-21.95Q118.02-22.27 116.99-22.62L116.99-22.62L116.99-22.62Q115.97-22.98 114.75-23.26L114.75-23.26L114.75-23.26Q113.54-23.55 112.29-23.74L112.29-23.74L112.29-23.74Q111.04-23.94 110.02-23.94L110.02-23.94L110.02-23.94Q107.90-23.94 106.75-23.46L106.75-23.46L106.75-23.46Q105.60-22.98 105.60-21.95L105.60-21.95L105.60-21.95Q105.60-21.25 106.24-20.80L106.24-20.80L106.24-20.80Q106.88-20.35 108.67-19.97L108.67-19.97L110.66-19.52L110.66-19.52Q116.80-18.11 119.39-15.65L119.39-15.65L119.39-15.65Q121.98-13.18 121.98-9.28ZM144 1.02L144 1.02L144 1.02Q140.22 1.02 136.99-0.03L136.99-0.03L136.99-0.03Q133.76-1.09 131.36-3.20L131.36-3.20L131.36-3.20Q128.96-5.31 127.58-8.51L127.58-8.51L127.58-8.51Q126.21-11.71 126.21-16L126.21-16L126.21-16Q126.21-20.22 127.58-23.26L127.58-23.26L127.58-23.26Q128.96-26.30 131.20-28.26L131.20-28.26L131.20-28.26Q133.44-30.21 136.32-31.14L136.32-31.14L136.32-31.14Q139.20-32.06 142.21-32.06L142.21-32.06L142.21-32.06Q145.60-32.06 148.38-31.04L148.38-31.04L148.38-31.04Q151.17-30.02 153.18-28.22L153.18-28.22L153.18-28.22Q155.20-26.43 156.32-23.94L156.32-23.94L156.32-23.94Q157.44-21.44 157.44-18.50L157.44-18.50L157.44-18.50Q157.44-16.32 156.22-15.17L156.22-15.17L156.22-15.17Q155.01-14.02 152.83-13.70L152.83-13.70L137.02-11.33L137.02-11.33Q137.73-9.22 139.90-8.16L139.90-8.16L139.90-8.16Q142.08-7.10 144.90-7.10L144.90-7.10L144.90-7.10Q147.52-7.10 149.86-7.78L149.86-7.78L149.86-7.78Q152.19-8.45 153.66-9.34L153.66-9.34L153.66-9.34Q154.69-8.70 155.39-7.55L155.39-7.55L155.39-7.55Q156.10-6.40 156.10-5.12L156.10-5.12L156.10-5.12Q156.10-2.24 153.41-0.83L153.41-0.83L153.41-0.83Q151.36 0.26 148.80 0.64L148.80 0.64L148.80 0.64Q146.24 1.02 144 1.02ZM142.21-24.13L142.21-24.13L142.21-24.13Q140.67-24.13 139.55-23.62L139.55-23.62L139.55-23.62Q138.43-23.10 137.73-22.30L137.73-22.30L137.73-22.30Q137.02-21.50 136.67-20.51L136.67-20.51L136.67-20.51Q136.32-19.52 136.26-18.50L136.26-18.50L147.20-20.29L147.20-20.29Q147.01-21.57 145.79-22.85L145.79-22.85L145.79-22.85Q144.58-24.13 142.21-24.13ZM173.76-37.18L173.76-0.06L173.76-0.06Q173.06 0.06 171.68 0.29L171.68 0.29L171.68 0.29Q170.30 0.51 168.90 0.51L168.90 0.51L168.90 0.51Q167.49 0.51 166.37 0.32L166.37 0.32L166.37 0.32Q165.25 0.13 164.48-0.45L164.48-0.45L164.48-0.45Q163.71-1.02 163.30-2.02L163.30-2.02L163.30-2.02Q162.88-3.01 162.88-4.61L162.88-4.61L162.88-41.73L162.88-41.73Q163.58-41.86 164.96-42.08L164.96-42.08L164.96-42.08Q166.34-42.30 167.74-42.30L167.74-42.30L167.74-42.30Q169.15-42.30 170.27-42.11L170.27-42.11L170.27-42.11Q171.39-41.92 172.16-41.34L172.16-41.34L172.16-41.34Q172.93-40.77 173.34-39.78L173.34-39.78L173.34-39.78Q173.76-38.78 173.76-37.18L173.76-37.18ZM191.68-37.18L191.68-0.06L191.68-0.06Q190.98 0.06 189.60 0.29L189.60 0.29L189.60 0.29Q188.22 0.51 186.82 0.51L186.82 0.51L186.82 0.51Q185.41 0.51 184.29 0.32L184.29 0.32L184.29 0.32Q183.17 0.13 182.40-0.45L182.40-0.45L182.40-0.45Q181.63-1.02 181.22-2.02L181.22-2.02L181.22-2.02Q180.80-3.01 180.80-4.61L180.80-4.61L180.80-41.73L180.80-41.73Q181.50-41.86 182.88-42.08L182.88-42.08L182.88-42.08Q184.26-42.30 185.66-42.30L185.66-42.30L185.66-42.30Q187.07-42.30 188.19-42.11L188.19-42.11L188.19-42.11Q189.31-41.92 190.08-41.34L190.08-41.34L190.08-41.34Q190.85-40.77 191.26-39.78L191.26-39.78L191.26-39.78Q191.68-38.78 191.68-37.18L191.68-37.18Z" fill="#f05e5e"></path></g></g><style>text {
  font-size: 64px;
  font-family: Arial Black;
  dominant-baseline: central;
  text-anchor: middle;
}</style></svg>