<svg id="visual" viewBox="0 0 900 600" width="900" height="600" xmlns="http://www.w3.org/2000/svg" xmlns:xlink="http://www.w3.org/1999/xlink" version="1.1"><path d="M0 261L7.8 260C15.7 259 31.3 257 47.2 250.7C63 244.3 79 233.7 94.8 247.7C110.7 261.7 126.3 300.3 142 312.8C157.7 325.3 173.3 311.7 189.2 296.3C205 281 221 264 236.8 269C252.7 274 268.3 301 284.2 314.8C300 328.7 316 329.3 331.8 303.7C347.7 278 363.3 226 379 223.5C394.7 221 410.3 268 426.2 282C442 296 458 277 473.8 253.8C489.7 230.7 505.3 203.3 521 193.5C536.7 183.7 552.3 191.3 568.2 212.3C584 233.3 600 267.7 615.8 264.7C631.7 261.7 647.3 221.3 663.2 232.2C679 243 695 305 710.8 325.2C726.7 345.3 742.3 323.7 758 305.7C773.7 287.7 789.3 273.3 805.2 268.2C821 263 837 267 852.8 254.2C868.7 241.3 884.3 211.7 892.2 196.8L900 182L900 0L892.2 0C884.3 0 868.7 0 852.8 0C837 0 821 0 805.2 0C789.3 0 773.7 0 758 0C742.3 0 726.7 0 710.8 0C695 0 679 0 663.2 0C647.3 0 631.7 0 615.8 0C600 0 584 0 568.2 0C552.3 0 536.7 0 521 0C505.3 0 489.7 0 473.8 0C458 0 442 0 426.2 0C410.3 0 394.7 0 379 0C363.3 0 347.7 0 331.8 0C316 0 300 0 284.2 0C268.3 0 252.7 0 236.8 0C221 0 205 0 189.2 0C173.3 0 157.7 0 142 0C126.3 0 110.7 0 94.8 0C79 0 63 0 47.2 0C31.3 0 15.7 0 7.8 0L0 0Z" fill="#be1f1f" stroke-linecap="round" stroke-linejoin="miter"></path></svg>